# xmcd
#
# Track frame offsets:
#	150
#	14832
#	33272
#	54150
#	71515
#	89402
#	108695
#	133162
#	158655
#	175337
#	199607
#	219627
#	236490
#	252005
#	273912
#	290875
#
# Disc length: 4286 seconds
#
# Revision: 2
# Processed by: cddbd v1.4PL0 Copyright (c) Steve Scherf et al.
# Submitted via: dBpowerAMP V4.0
#
DISCID=eb10bc10
DTITLE=Richard Clapton - The Very Best Of Richard Clapton
DYEAR=1981
DGENRE=Pop
TTITLE0=Girls On The Avenue
TTITLE1=Stepping Across The Line
TTITLE2=Ace Of Hearts
TTITLE3=Capricorn Dancer
TTITLE4=I Wanna Be A Survivor
TTITLE5=Down The Road
TTITLE6=Get Back To The Shelter
TTITLE7=Goodbye Tiger
TTITLE8=Down In The Lucky Country
TTITLE9=Deep Water
TTITLE10=Blue Bay Blues
TTITLE11=Need a Visionary
TTITLE12=Suit Yourself
TTITLE13=High Society
TTITLE14=Hearts On The Nightline
TTITLE15=Dark Spaces
EXTD=
EXTT0=
EXTT1=
EXTT2=
EXTT3=
EXTT4=
EXTT5=
EXTT6=
EXTT7=
EXTT8=
EXTT9=
EXTT10=
EXTT11=
EXTT12=
EXTT13=
EXTT14=
EXTT15=
PLAYORDER=
